<?xml version="1.0" encoding="UTF-8"?>
<svg xmlns="http://www.w3.org/2000/svg" viewBox="0 0 960 540">
  <defs>
    <linearGradient id="sea" x1="0" y1="0" x2="0" y2="1">
      <stop offset="0%" stop-color="#46A2E9"/>
      <stop offset="100%" stop-color="#1E88E5"/>
    </linearGradient>
  </defs>
  <rect width="960" height="540" fill="url(#sea)"/>
  <g fill="#fff" opacity="0.22">
    <path d="M40 120 l8 6 l-8 6 l8 6 l-8 6"/>
    <path d="M120 200 l8 6 l-8 6 l8 6 l-8 6"/>
    <path d="M200 80 l8 6 l-8 6 l8 6 l-8 6"/>
    <path d="M300 160 l8 6 l-8 6 l8 6 l-8 6"/>
    <path d="M400 100 l8 6 l-8 6 l8 6 l-8 6"/>
    <path d="M500 220 l8 6 l-8 6 l8 6 l-8 6"/>
    <path d="M600 140 l8 6 l-8 6 l8 6 l-8 6"/>
    <path d="M700 90 l8 6 l-8 6 l8 6 l-8 6"/>
    <path d="M800 180 l8 6 l-8 6 l8 6 l-8 6"/>
    <path d="M880 260 l8 6 l-8 6 l8 6 l-8 6"/>
    <path d="M60 340 l8 6 l-8 6 l8 6 l-8 6"/>
    <path d="M160 420 l8 6 l-8 6 l8 6 l-8 6"/>
    <path d="M280 380 l8 6 l-8 6 l8 6 l-8 6"/>
    <path d="M380 460 l8 6 l-8 6 l8 6 l-8 6"/>
    <path d="M520 400 l8 6 l-8 6 l8 6 l-8 6"/>
    <path d="M640 480 l8 6 l-8 6 l8 6 l-8 6"/>
    <path d="M760 420 l8 6 l-8 6 l8 6 l-8 6"/>
    <path d="M860 360 l8 6 l-8 6 l8 6 l-8 6"/>
  </g>
  <ellipse cx="480" cy="520" rx="420" ry="40" fill="#1565C0" opacity="0.18"/>
</svg>
